:FULLY-SPECIFIED
:FORCE-ALL-JOINTS-BE-3DOF
:DEGREES
65
root 8.96111 16.0002 -27.3817 4.81923 -9.31415 0.0710717
lfemur -27.9982 5.08014 -24.6746
ltibia 28.547 0 0
lfoot -13.6881 6.76096 0
ltoes -0.354948 0 0
rfemur -0.32007 4.14956 16.4486
rtibia 31.3672 0 0
rfoot -2.98028 -3.67189 0
rtoes -14.4061 0 0
lowerback -6.82 0.0605395 -1.91943
upperback -1.65441 0.181421 2.46507
thorax 2.14871 0.0611615 3.58801
lowerneck -21.0571 -4.44376 -12.7117
upperneck 18.8357 -5.21434 13.0963
head 10.1819 -1.85428 6.0432
lclavicle -1.31055e-15 -1.34186e-14 0
lhumerus -34.729 -13.0411 88.5494
lradius 28.6286 0 0
lwrist 3.05457 0 0
lhand -2.91205 -20.1674 0
lfingers 7.12502 0 0
lthumb 22.7706 8.18248 0
rclavicle -1.31055e-15 -1.34186e-14 0
rhumerus -45.3794 16.5753 -92.9712
rradius 44.5389 0 0
rwrist -23.4052 0 0
rhand -29.2025 -26.0837 0
rfingers 7.12502 0 0
rthumb -2.5473 -56.0485 0
66
root 8.98117 16.008 -27.2644 4.72292 -9.12995 0.229326
lfemur -27.1632 4.84755 -24.9943
ltibia 27.8937 0 0
lfoot -14.1102 6.75613 0
ltoes -0.362334 0 0
rfemur -1.41562 4.2515 16.297
rtibia 31.6198 0 0
rfoot -3.66648 -3.8913 0
rtoes -14.5215 0 0
lowerback -6.85761 -0.00884159 -2.01942
upperback -1.59658 0.0972583 2.43137
thorax 2.23776 0.0162853 3.60085
lowerneck -21.0243 -4.45121 -12.7024
upperneck 18.9271 -5.21832 13.0069
head 10.2052 -1.86658 6.01044
lclavicle -2.7432e-15 -1.2639e-14 0
lhumerus -34.0877 -13.6964 88.5274
lradius 29.1771 0 0
lwrist 3.59081 0 0
lhand -3.42054 -20.4119 0
lfingers 7.12502 0 0
lthumb 22.282 7.98931 0
rclavicle -2.7432e-15 -1.2639e-14 0
rhumerus -45.3225 16.4505 -92.8339
rradius 44.4051 0 0
rwrist -23.3827 0 0
rhand -29.2109 -26.0318 0
rfingers 7.12502 0 0
rthumb -2.55542 -55.9965 0
67
root 9.00111 16.016 -27.1479 4.62963 -8.93688 0.385224
lfemur -26.3182 4.62033 -25.3016
ltibia 27.2543 0 0
lfoot -14.5099 6.74904 0
ltoes -0.374 0 0
rfemur -2.51499 4.35006 16.1507
rtibia 31.8717 0 0
rfoot -4.34542 -4.10573 0
rtoes -14.6335 0 0
lowerback -6.89382 -0.0790747 -2.11756
upperback -1.5397 0.0117767 2.39872
thorax 2.32511 -0.0291887 3.61373
lowerneck -20.9912 -4.45974 -12.6943
upperneck 19.0154 -5.22365 12.9195
head 10.2277 -1.87937 5.97833
lclavicle -4.12542e-15 -1.18803e-14 0
lhumerus -33.4597 -14.3309 88.5056
lradius 29.7091 0 0
lwrist 4.10754 0 0
lhand -3.92193 -20.6521 0
lfingers 7.12502 0 0
lthumb 21.8002 7.79993 0
rclavicle -4.12542e-15 -1.18803e-14 0
rhumerus -45.2675 16.3207 -92.6914
rradius 44.2639 0 0
rwrist -23.3559 0 0
rhand -29.2199 -25.9791 0
rfingers 7.12502 0 0
rthumb -2.56412 -55.9436 0
68
root 9.0209 16.0242 -27.0322 4.53935 -8.73539 0.538704
lfemur -25.4643 4.39852 -25.5965
ltibia 26.6288 0 0
lfoot -14.8876 6.73977 0
ltoes -0.389793 0 0
rfemur -3.61708 4.44527 16.0096
rtibia 32.1227 0 0
rfoot -5.01674 -4.31514 0
rtoes -14.7423 0 0
lowerback -6.92864 -0.150069 -2.21384
upperback -1.48377 -0.0749039 2.36713
thorax 2.41076 -0.0752003 3.62662
lowerneck -20.9579 -4.46931 -12.6874
upperneck 19.1006 -5.2303 12.8341
head 10.2494 -1.89264 5.94688
lclavicle -5.45761e-15 -1.11423e-14 0
lhumerus -32.8451 -14.9445 88.484
lradius 30.2245 0 0
lwrist 4.60493 0 0
lhand -4.41599 -20.888 0
lfingers 7.12502 0 0
lthumb 21.3255 7.61439 0
rclavicle -5.45761e-15 -1.11423e-14 0
rhumerus -45.2144 16.1861 -92.544
rradius 44.1159 0 0
rwrist -23.3248 0 0
rhand -29.2295 -25.9255 0
rfingers 7.12502 0 0
rthumb -2.57337 -55.89 0
69
root 9.04052 16.0326 -26.9171 4.45205 -8.52594 0.689704
lfemur -24.6027 4.18214 -25.8792
ltibia 26.0173 0 0
lfoot -15.2437 6.72841 0
ltoes -0.409566 0 0
rfemur -4.72076 4.53715 15.8736
rtibia 32.3726 0 0
rfoot -5.68006 -4.51952 0
rtoes -14.8478 0 0
lowerback -6.96208 -0.221734 -2.30821
upperback -1.42883 -0.162664 2.33659
thorax 2.49466 -0.121689 3.63951
lowerneck -20.9245 -4.47988 -12.6818
upperneck 19.1828 -5.23822 12.7507
head 10.2703 -1.90635 5.91609
lclavicle -6.74019e-15 -1.04251e-14 0
lhumerus -32.244 -15.5374 88.4626
lradius 30.7235 0 0
lwrist 5.08316 0 0
lhand -4.9025 -21.1195 0
lfingers 7.12502 0 0
lthumb 20.8581 7.43273 0
rclavicle -6.74019e-15 -1.04251e-14 0
rhumerus -45.1631 16.047 -92.3922
rradius 43.9614 0 0
rwrist -23.2898 0 0
rhand -29.2396 -25.8713 0
rfingers 7.12502 0 0
rthumb -2.58314 -55.8356 0
70
root 9.05993 16.0412 -26.8027 4.36773 -8.30901 0.838159
lfemur -23.7342 3.97122 -26.1499
ltibia 25.42 0 0
lfoot -15.5786 6.71504 0
ltoes -0.433167 0 0
rfemur -5.82495 4.62572 15.7427
rtibia 32.6211 0 0
rfoot -6.33501 -4.71882 0
rtoes -14.95 0 0
lowerback -6.99415 -0.29398 -2.40066
upperback -1.37488 -0.251384 2.3071
thorax 2.5768 -0.168596 3.6524
lowerneck -20.8909 -4.49139 -12.6772
upperneck 19.2619 -5.24735 12.6694
head 10.2904 -1.92048 5.88597
lclavicle -7.97357e-15 -9.72874e-15 0
lhumerus -31.6567 -16.1098 88.4415
lradius 31.2062 0 0
lwrist 5.5424 0 0
lhand -5.38126 -21.3464 0
lfingers 7.12502 0 0
lthumb 20.3981 7.25499 0
rclavicle -7.97357e-15 -9.72874e-15 0
rhumerus -45.1137 15.9037 -92.2361
rradius 43.8006 0 0
rwrist -23.2509 0 0
rhand -29.2502 -25.8165 0
rfingers 7.12502 0 0
rthumb -2.59341 -55.7807 0
71
root 9.07911 16.05 -26.6889 4.28637 -8.08506 0.984009
lfemur -22.8602 3.76578 -26.4087
ltibia 24.837 0 0
lfoot -15.8926 6.69974 0
ltoes -0.460446 0 0
rfemur -6.92852 4.711 15.6169
rtibia 32.8682 0 0
rfoot -6.98123 -4.91303 0
rtoes -15.0489 0 0
lowerback -7.02488 -0.366714 -2.49115
upperback -1.32196 -0.340945 2.27864
thorax 2.65716 -0.215859 3.66526
lowerneck -20.8573 -4.50381 -12.6738
upperneck 19.338 -5.25765 12.5902
head 10.3098 -1.93499 5.85654
lclavicle -9.15816e-15 -9.05313e-15 0
lhumerus -31.0831 -16.6617 88.4205
lradius 31.6725 0 0
lwrist 5.98283 0 0
lhand -5.85205 -21.5687 0
lfingers 7.12502 0 0
lthumb 19.9458 7.08123 0
rclavicle -9.15816e-15 -9.05313e-15 0
rhumerus -45.0662 15.7565 -92.076
rradius 43.6341 0 0
rwrist -23.2082 0 0
rhand -29.2613 -25.7611 0
rfingers 7.12502 0 0
rthumb -2.60415 -55.7252 0
72
root 9.09804 16.0588 -26.5755 4.20795 -7.85454 1.12719
lfemur -21.9815 3.56585 -26.6556
ltibia 24.2684 0 0
lfoot -16.1861 6.68258 0
ltoes -0.491253 0 0
rfemur -8.03037 4.79302 15.4961
rtibia 33.1135 0 0
rfoot -7.61833 -5.10211 0
rtoes -15.1446 0 0
lowerback -7.05426 -0.439848 -2.57967
upperback -1.27008 -0.431227 2.25121
thorax 2.73571 -0.263419 3.6781
lowerneck -20.8235 -4.5171 -12.6714
upperneck 19.4111 -5.26906 12.513
head 10.3283 -1.94986 5.82778
lclavicle -1.02944e-14 -8.39831e-15 0
lhumerus -30.5235 -17.1932 88.3998
lradius 32.1226 0 0
lwrist 6.40462 0 0
lhand -6.31464 -21.7864 0
lfingers 7.12502 0 0
lthumb 19.5014 6.91149 0
rclavicle -1.02944e-14 -8.39831e-15 0
rhumerus -45.0205 15.6056 -91.9123
rradius 43.4621 0 0
rwrist -23.1621 0 0
rhand -29.2729 -25.7053 0
rfingers 7.12502 0 0
rthumb -2.61532 -55.6692 0
73
root 9.11668 16.0678 -26.4625 4.13246 -7.61791 1.26764
lfemur -21.0994 3.37147 -26.8909
ltibia 23.7144 0 0
lfoot -16.4596 6.66364 0
ltoes -0.525438 0 0
rfemur -9.12939 4.8718 15.3804
rtibia 33.357 0 0
rfoot -8.24596 -5.28603 0
rtoes -15.237 0 0
lowerback -7.08232 -0.51329 -2.66617
upperback -1.21926 -0.52211 2.22482
thorax 2.81243 -0.311216 3.69088
lowerneck -20.7898 -4.53121 -12.6701
upperneck 19.4813 -5.28154 12.4379
head 10.3461 -1.96507 5.79972
lclavicle -1.13826e-14 -7.76428e-15 0
lhumerus -29.978 -17.7046 88.3794
lradius 32.5565 0 0
lwrist 6.80795 0 0
lhand -6.76883 -21.9993 0
lfingers 7.12502 0 0
lthumb 19.0651 6.7458 0
rclavicle -1.13826e-14 -7.76428e-15 0
rhumerus -44.9767 15.4514 -91.7452
rradius 43.285 0 0
rwrist -23.1126 0 0
rhand -29.2849 -25.6491 0
rfingers 7.12502 0 0
rthumb -2.62692 -55.6128 0
74
root 9.13501 16.0768 -26.3498 4.05989 -7.37565 1.4053
lfemur -20.2149 3.18265 -27.1147
ltibia 23.175 0 0
lfoot -16.7132 6.64301 0
ltoes -0.562852 0 0
rfemur -10.2245 4.94735 15.2696
rtibia 33.5983 0 0
rfoot -8.86374 -5.46476 0
rtoes -15.3261 0 0
lowerback -7.10907 -0.586949 -2.75064
upperback -1.16952 -0.613475 2.19944
thorax 2.8873 -0.35919 3.70361
lowerneck -20.7561 -4.54609 -12.6698
upperneck 19.5484 -5.29504 12.3649
head 10.3632 -1.98058 5.77237
lclavicle -1.24233e-14 -7.15104e-15 0
lhumerus -29.4467 -18.1958 88.3592
lradius 32.9743 0 0
lwrist 7.19299 0 0
lhand -7.21439 -22.2074 0
lfingers 7.12502 0 0
lthumb 18.6371 6.58423 0
rclavicle -1.24233e-14 -7.15104e-15 0
rhumerus -44.9346 15.2941 -91.5751
rradius 43.1032 0 0
rwrist -23.0599 0 0
rhand -29.2973 -25.5925 0
rfingers 7.12502 0 0
rthumb -2.6389 -55.5561 0
75
root 9.15301 16.086 -26.2374 3.99021 -7.12821 1.5401
lfemur -19.329 2.99943 -27.327
ltibia 22.6503 0 0
lfoot -16.9475 6.62077 0
ltoes -0.603342 0 0
rfemur -11.3145 5.01971 15.1636
rtibia 33.8373 0 0
rfoot -9.4713 -5.63828 0
rtoes -15.4121 0 0
lowerback -7.13452 -0.660735 -2.83304
upperback -1.12089 -0.705203 2.17508
thorax 2.96029 -0.407279 3.71627
lowerneck -20.7224 -4.56172 -12.6705
upperneck 19.6127 -5.30951 12.294
head 10.3794 -1.99637 5.74572
lclavicle -1.34168e-14 -6.55858e-15 0
lhumerus -28.9297 -18.6671 88.3393
lradius 33.376 0 0
lwrist 7.55991 0 0
lhand -7.65112 -22.4107 0
lfingers 7.12502 0 0
lthumb 18.2176 6.42681 0
rclavicle -1.34168e-14 -6.55858e-15 0
rhumerus -44.8944 15.134 -91.4022
rradius 42.9171 0 0
rwrist -23.0041 0 0
rhand -29.3101 -25.5357 0
rfingers 7.12502 0 0
rthumb -2.65125 -55.4992 0
76
root 9.17064 16.0952 -26.1251 3.92341 -6.87606 1.67198
lfemur -18.4429 2.82184 -27.5281
ltibia 22.1406 0 0
lfoot -17.1628 6.59699 0
ltoes -0.646761 0 0
rfemur -12.3984 5.08889 15.0626
rtibia 34.0738 0 0
rfoot -10.0683 -5.80655 0
rtoes -15.4947 0 0
lowerback -7.15869 -0.734557 -2.91335
upperback -1.07337 -0.797173 2.15173
thorax 3.03139 -0.455425 3.72884
lowerneck -20.6888 -4.57803 -12.6722
upperneck 19.6741 -5.3249 12.2252
head 10.395 -2.01241 5.71979
lclavicle -1.43636e-14 -5.98691e-15 0
lhumerus -28.4271 -19.1185 88.3198
lradius 33.7618 0 0
lwrist 7.9089 0 0
lhand -8.07878 -22.6089 0
lfingers 7.12502 0 0
lthumb 17.8069 6.2736 0
rclavicle -1.43636e-14 -5.98691e-15 0
rhumerus -44.8559 14.9714 -91.2268
rradius 42.7269 0 0
rwrist -22.9455 0 0
rhand -29.3232 -25.4788 0
rfingers 7.12502 0 0
rthumb -2.66393 -55.4421 0
